<?xml version="1.0" standalone="no"?>
<!DOCTYPE svg PUBLIC "-//W3C//DTD SVG 20010904//EN"
 "http://www.w3.org/TR/2001/REC-SVG-20010904/DTD/svg10.dtd">
<svg version="1.0" xmlns="http://www.w3.org/2000/svg"
 width="1024.000000pt" height="1024.000000pt" viewBox="0 0 1024.000000 1024.000000"
 preserveAspectRatio="xMidYMid meet">
<metadata>
Created by potrace 1.11, written by Peter Selinger 2001-2013
</metadata>
<g transform="translate(0.000000,1024.000000) scale(0.100000,-0.100000)"
fill="#4c97d1" stroke="none">
<path d="M0 5120 l0 -5120 1566 0 1566 0 -8 22 c-4 13 -10 267 -11 565 l-4
543 -52 0 c-119 0 -281 67 -372 153 -32 30 -310 395 -660 867 -486 655 -608
826 -622 870 -17 51 -18 120 -18 960 l0 905 26 56 c33 69 89 127 155 160 41
20 64 24 139 24 81 0 95 -3 143 -29 66 -37 117 -92 148 -161 l25 -53 2 -653 2
-653 80 -61 c44 -33 256 -191 470 -350 215 -159 443 -328 508 -377 64 -48 117
-86 117 -83 0 2 -130 162 -290 356 -321 390 -332 408 -333 534 0 81 30 154 82
198 106 89 288 70 399 -41 31 -32 798 -963 1076 -1307 49 -60 101 -135 115
-165 l26 -55 0 -1090 c0 -870 -3 -1095 -13 -1113 l-13 -22 889 0 889 0 -14 52
c-11 44 -13 243 -11 1113 l3 1060 26 55 c14 30 57 93 95 140 265 329 1074
1309 1103 1337 79 77 205 111 305 83 88 -24 157 -109 171 -211 8 -55 -15 -156
-48 -211 -19 -32 -280 -354 -500 -616 -43 -52 -77 -95 -75 -96 2 -2 267 193
590 433 l588 436 0 441 c0 440 0 442 -21 447 -12 3 -18 10 -14 17 4 6 13 9 20
6 11 -4 14 36 17 207 l3 212 30 54 c126 227 439 228 564 1 l36 -65 3 -461 3
-461 24 -11 c35 -16 35 -68 1 -84 l-25 -11 -3 -406 c-3 -356 -6 -412 -21 -451
-24 -63 -1200 -1649 -1278 -1723 -96 -92 -251 -157 -377 -157 l-51 0 -3 -547
c-2 -302 -7 -556 -12 -565 -8 -17 69 -18 1538 -18 l1546 0 0 5120 0 5120
-5120 0 -5120 0 0 -5120z m5136 2919 c3 -19 6 -47 7 -64 1 -16 5 -34 8 -40 4
-5 5 -19 3 -30 -4 -27 16 -168 26 -179 5 -4 37 -10 72 -12 87 -5 262 -25 267
-30 2 -2 -20 -4 -49 -4 -88 0 -53 -14 63 -25 34 -3 64 -10 65 -15 2 -6 21 -10
43 -10 21 0 62 -11 89 -24 28 -13 50 -20 50 -15 0 5 25 -2 56 -16 31 -14 62
-25 69 -25 7 0 18 -6 25 -14 6 -8 18 -12 26 -9 8 3 14 -1 14 -10 0 -10 8 -13
26 -9 19 3 25 1 20 -7 -4 -6 -2 -11 4 -11 6 0 9 -4 5 -10 -5 -8 27 -20 103
-35 30 -6 41 -18 25 -28 -5 -2 -2 -2 6 0 24 6 50 -7 44 -23 -5 -12 7 -19 30
-15 4 0 7 -4 7 -9 0 -6 6 -10 13 -10 8 0 22 -9 32 -20 10 -11 25 -20 34 -20 9
0 25 -13 34 -30 10 -16 24 -30 32 -30 7 0 15 -3 17 -7 2 -5 24 -19 51 -32 30
-16 47 -31 47 -43 0 -11 7 -18 20 -18 13 0 20 -7 20 -20 0 -11 5 -20 10 -20
12 0 90 -77 84 -82 -2 -3 7 -11 21 -18 14 -8 33 -29 42 -48 19 -40 41 -51 58
-29 7 10 18 17 24 17 11 0 60 39 186 146 24 21 41 30 44 23 2 -7 -4 -16 -13
-21 -9 -5 -16 -15 -16 -23 0 -7 -4 -15 -8 -17 -12 -5 -141 -171 -158 -202 -8
-16 -12 -38 -8 -49 4 -14 3 -17 -6 -12 -9 5 -11 4 -6 -4 4 -6 12 -9 17 -6 5 4
9 0 9 -8 0 -8 9 -22 20 -32 11 -10 20 -24 20 -31 0 -7 8 -18 18 -23 16 -10 16
-10 0 -11 -10 0 -18 -5 -18 -11 0 -8 -4 -8 -14 0 -11 9 -16 9 -22 0 -4 -7 -3
-9 4 -5 6 3 13 2 17 -3 3 -6 13 -7 21 -4 14 5 14 3 3 -14 -13 -22 -7 -53 11
-53 7 0 9 9 5 23 -5 16 -1 13 13 -9 11 -18 25 -35 31 -39 6 -3 8 -17 5 -29 -4
-16 0 -25 11 -30 9 -3 15 -14 13 -23 -1 -10 5 -29 14 -42 10 -13 15 -28 12
-33 -3 -4 1 -8 8 -9 7 0 4 -4 -7 -9 l-20 -9 20 0 c15 -1 17 -3 6 -10 -18 -12
-5 -32 16 -24 10 4 14 2 10 -4 -4 -6 -2 -24 3 -39 12 -30 6 -44 -12 -26 -18
18 -27 15 -21 -7 3 -12 11 -17 23 -14 10 3 21 -1 25 -8 6 -8 4 -10 -5 -4 -10
6 -12 4 -7 -9 4 -10 10 -35 13 -57 4 -21 11 -39 16 -39 5 0 4 -9 -2 -19 -12
-24 -13 -34 -1 -26 17 10 20 -11 12 -66 -6 -35 -5 -58 1 -66 6 -7 8 -22 5 -33
-3 -11 -1 -20 4 -20 5 0 9 -42 9 -92 l0 -93 -30 -1 c-36 -1 -50 -12 -31 -23
10 -6 12 -28 10 -82 -4 -70 -3 -74 19 -77 12 -2 22 -7 22 -11 0 -5 50 -14 110
-21 61 -7 110 -16 110 -19 0 -4 -48 -13 -107 -20 -123 -14 -191 -29 -200 -44
-6 -9 -8 -27 -12 -75 -1 -7 -5 -11 -9 -8 -5 3 -9 0 -9 -7 -1 -7 -4 -28 -6 -47
-3 -19 -6 -47 -6 -61 -1 -17 -8 -28 -18 -31 -16 -4 -22 -19 -50 -121 -3 -11
-11 -16 -19 -13 -14 5 -37 -57 -33 -92 4 -42 -1 -55 -15 -43 -10 8 -16 8 -23
-1 -16 -21 -22 -57 -9 -62 6 -2 3 -5 -6 -5 -9 -1 -23 -13 -30 -28 -7 -16 -23
-29 -36 -31 -20 -3 -21 -5 -8 -23 11 -16 11 -27 3 -50 -6 -16 -15 -29 -20 -29
-4 0 -5 4 -2 10 3 5 2 18 -4 27 -8 15 -10 12 -9 -14 1 -18 5 -33 10 -33 4 0 7
-4 5 -9 -1 -5 35 -36 81 -70 l83 -62 19 23 c18 22 19 22 37 5 15 -15 16 -20 5
-38 -11 -18 -11 -23 5 -35 10 -7 26 -16 36 -19 9 -4 17 -10 17 -14 0 -4 18
-15 40 -25 22 -10 40 -22 40 -27 0 -6 -3 -8 -7 -6 -8 5 -165 78 -218 102 -68
30 -152 63 -177 69 -16 4 -28 11 -28 17 0 24 -20 -4 -21 -29 0 -23 -2 -24 -8
-7 -7 18 -8 18 -18 1 -7 -12 -17 -17 -27 -13 -11 5 -16 1 -16 -13 0 -10 -9
-21 -19 -25 -11 -3 -18 -12 -15 -20 7 -18 -16 -30 -28 -14 -8 11 -9 10 -4 -4
10 -30 -20 -64 -56 -65 -45 -1 -80 -21 -73 -43 3 -10 -1 -19 -10 -23 -8 -3
-15 -13 -15 -21 0 -10 -7 -16 -17 -14 -44 4 -55 -1 -50 -21 4 -17 0 -20 -25
-20 -28 0 -107 -52 -130 -84 -13 -19 5 -71 68 -205 35 -73 64 -137 64 -141 0
-5 3 -10 8 -12 7 -3 23 -36 69 -138 24 -52 24 -54 4 -36 -12 11 -21 22 -21 27
0 15 -250 377 -290 420 -12 12 -22 14 -47 7 -18 -5 -33 -13 -33 -18 0 -6 -11
-10 -25 -10 -14 0 -28 -7 -31 -15 -4 -8 -17 -15 -30 -15 -13 0 -24 -4 -24 -10
0 -5 -14 -10 -31 -10 -17 0 -28 -4 -24 -10 7 -12 -21 -18 -115 -24 -65 -3
-115 -11 -115 -16 0 -1 -20 -4 -44 -6 -56 -5 -95 -29 -88 -55 3 -10 1 -19 -4
-19 -4 0 -6 -7 -3 -15 4 -8 2 -21 -3 -28 -6 -6 -11 -41 -12 -77 -3 -80 -17
-100 -26 -34 -3 27 -15 73 -26 102 -10 30 -19 62 -19 71 0 17 -17 19 -196 23
-108 3 -199 10 -203 15 -3 6 -31 13 -61 18 -87 12 -105 11 -103 -2 2 -7 -1
-13 -6 -13 -5 0 -24 -25 -42 -55 -35 -58 -49 -63 -84 -32 -11 10 -64 46 -117
80 -82 52 -97 65 -92 82 4 11 11 21 15 23 15 6 -16 30 -67 52 -27 11 -66 29
-86 39 -32 16 -39 17 -49 5 -10 -12 -17 -12 -44 5 -25 15 -36 16 -45 8 -10 -9
-11 -9 -6 1 4 6 5 16 1 21 -3 6 -28 -11 -56 -37 -28 -26 -76 -71 -107 -99 -49
-46 -91 -69 -80 -45 3 7 72 105 126 178 17 24 32 48 32 52 0 4 -22 21 -50 37
-27 17 -50 36 -50 43 0 8 -5 10 -12 6 -8 -4 -10 -3 -5 2 5 5 10 7 13 4 2 -3
11 5 20 18 9 13 13 26 10 29 -3 4 -6 1 -6 -5 0 -7 -5 -12 -11 -12 -5 0 -7 4
-4 10 4 6 -1 7 -11 3 -11 -4 -15 -2 -11 4 6 10 -32 33 -55 33 -12 0 -110 103
-114 120 0 3 -5 16 -11 29 -7 18 -12 21 -18 12 -6 -11 -9 -10 -16 0 -8 12 -11
12 -18 0 -8 -12 -11 -8 -16 15 -4 16 -10 43 -14 59 -5 20 -14 31 -29 33 -13 2
-22 11 -22 20 0 14 -2 14 -9 3 -7 -11 -12 -4 -20 25 -6 21 -11 50 -11 64 0 20
-2 22 -10 10 -6 -10 -10 -11 -10 -2 0 6 -10 12 -21 12 -16 0 -20 5 -16 20 4
16 0 20 -21 21 l-27 1 25 8 c14 4 20 8 13 9 -6 1 -14 9 -17 19 -4 12 -18 18
-51 20 -25 2 -51 0 -57 -4 -6 -4 -28 -9 -49 -10 -46 -5 -45 12 3 41 17 10 46
32 64 49 26 25 31 37 27 59 -3 15 -12 27 -20 27 -8 0 -17 9 -20 20 -3 11 -10
20 -15 20 -5 0 -6 9 -3 21 9 26 -14 86 -26 67 -12 -20 -20 -4 -24 48 -2 27 -9
50 -16 53 -8 2 -7 6 2 12 10 7 11 11 2 17 -11 7 -29 95 -25 118 1 7 -6 14 -16
16 -15 4 -19 16 -21 64 -1 32 -7 61 -13 65 -6 4 -8 19 -5 35 3 16 8 44 12 62
5 25 3 32 -9 32 -9 0 -16 7 -16 15 0 21 -17 19 -23 -2 -3 -10 -4 19 -2 65 4
76 9 123 21 180 3 15 1 21 -6 17 -6 -4 -10 4 -10 19 0 18 6 26 18 27 14 0 14
2 -3 9 -19 8 -18 11 4 14 18 2 24 16 8 16 -9 0 -17 4 -17 10 0 5 7 7 15 4 9
-4 15 0 15 10 0 9 -5 16 -11 16 -6 0 -9 7 -5 15 3 8 0 15 -6 15 -6 0 -3 9 6
19 17 18 17 20 -1 38 -16 16 -104 63 -118 63 -3 0 -24 8 -48 19 -23 10 -94 37
-157 61 -63 23 -150 55 -192 71 -42 16 -84 29 -92 29 -15 0 -32 18 -24 25 4 4
61 -9 293 -70 77 -21 178 -46 225 -56 47 -11 97 -23 112 -28 32 -11 40 -3 57
54 22 70 33 95 42 89 5 -3 9 6 9 20 0 14 4 27 9 30 5 3 12 22 15 41 4 21 13
35 21 35 8 0 15 7 15 15 0 9 7 18 15 21 8 4 15 10 15 16 0 5 -3 7 -7 5 -5 -3
-8 10 -9 29 0 19 3 34 8 34 4 0 8 6 8 13 0 7 9 23 20 35 11 12 20 26 20 32 0
5 7 10 16 10 8 0 12 5 9 10 -3 6 -2 10 4 10 6 0 8 6 5 13 -2 7 7 24 21 37 14
13 25 32 25 42 0 10 7 18 15 18 8 0 15 7 15 15 0 8 5 15 11 15 5 0 15 14 20
30 7 20 18 30 32 31 18 1 18 2 4 6 -9 2 -15 9 -11 14 3 5 9 7 13 4 5 -2 29 18
55 45 26 28 44 50 39 50 -10 0 33 26 70 41 27 11 34 23 20 32 -5 2 -3 3 3 1 5
-1 21 7 35 17 13 10 18 19 12 19 -7 0 -13 5 -13 11 0 6 7 9 15 5 8 -3 21 1 29
9 8 8 19 15 25 15 5 0 16 8 23 18 7 11 30 22 50 26 21 4 37 10 37 14 -3 20 2
32 11 27 10 -6 14 6 10 40 -1 11 -24 68 -51 127 -44 95 -53 138 -29 138 7 0
79 -89 111 -140 9 -14 33 -42 52 -63 29 -31 41 -37 59 -31 13 3 25 11 26 15 2
5 10 9 17 9 8 0 20 8 27 19 7 10 29 21 48 24 57 9 70 13 82 25 7 7 16 12 22
12 5 0 18 7 28 17 12 11 18 12 18 4 0 -8 5 -7 16 3 8 9 29 17 45 18 48 2 54 3
59 8 3 3 15 11 28 18 18 10 22 10 22 0 0 -10 3 -9 9 1 5 8 16 11 26 7 9 -3 22
0 30 7 7 7 34 14 59 16 26 1 57 6 69 11 19 8 18 9 -13 10 -92 3 64 28 220 35
73 4 70 2 70 25 0 11 5 20 10 20 6 0 10 12 10 28 -1 15 2 47 5 72 3 25 8 69
11 98 4 36 9 50 17 45 8 -4 7 -1 -1 9 -8 10 -9 19 -3 22 5 3 7 16 4 29 -3 12
-3 19 1 16 3 -3 8 -21 12 -40z m-166 -289 c-8 -5 -40 -9 -70 -8 l-55 1 60 7
c33 4 65 7 70 8 6 1 3 -3 -5 -8z m57 4 c-3 -3 -12 -4 -19 -1 -8 3 -5 6 6 6 11
1 17 -2 13 -5z m316 -11 c-13 -2 -33 -2 -45 0 -13 2 -3 4 22 4 25 0 35 -2 23
-4z m212 -23 c15 -6 9 -9 -25 -9 -34 0 -40 3 -25 9 11 5 22 9 25 9 3 0 14 -4
25 -9z m125 -30 c0 -5 -7 -10 -15 -10 -8 0 -15 5 -15 10 0 6 7 10 15 10 8 0
15 -4 15 -10z m1360 -530 c0 -5 -5 -10 -11 -10 -5 0 -7 5 -4 10 3 6 8 10 11
10 2 0 4 -4 4 -10z m-4506 -669 c4 -5 -3 -7 -14 -4 -23 6 -26 13 -6 13 8 0 17
-4 20 -9z m623 -793 c-3 -8 -6 -5 -6 6 -1 11 2 17 5 13 3 -3 4 -12 1 -19z m10
-55 c-3 -10 -5 -4 -5 12 0 17 2 24 5 18 2 -7 2 -21 0 -30z m3933 -12 c0 -6 -4
-13 -10 -16 -5 -3 -10 1 -10 9 0 9 5 16 10 16 6 0 10 -4 10 -9z m-3950 -16 c0
-8 -4 -15 -10 -15 -5 0 -7 7 -4 15 4 8 8 15 10 15 2 0 4 -7 4 -15z m-1630 -95
c0 -11 -6 -20 -14 -20 -18 0 -29 16 -21 30 11 18 35 11 35 -10z m7648 -817 c5
-17 -26 -29 -40 -15 -6 6 -7 15 -3 22 9 14 37 9 43 -7z m-2901 -399 c-3 -3
-12 -4 -19 -1 -8 3 -5 6 6 6 11 1 17 -2 13 -5z m3382 -1328 c15 -18 3 -46 -20
-46 -22 0 -34 22 -25 45 7 19 30 19 45 1z"/>
<path d="M3320 6545 c0 -8 2 -15 4 -15 2 0 6 7 10 15 3 8 1 15 -4 15 -6 0 -10
-7 -10 -15z"/>
<path d="M6911 6524 c0 -11 3 -14 6 -6 3 7 2 16 -1 19 -3 4 -6 -2 -5 -13z"/>
<path d="M6920 6490 c0 -5 5 -10 11 -10 5 0 7 5 4 10 -3 6 -8 10 -11 10 -2 0
-4 -4 -4 -10z"/>
<path d="M6930 6464 c0 -6 7 -19 16 -30 14 -18 14 -18 3 6 -14 31 -19 36 -19
24z"/>
<path d="M3275 6399 c-4 -6 -5 -12 -2 -15 2 -3 7 2 10 11 7 17 1 20 -8 4z"/>
<path d="M3251 6384 c0 -11 3 -14 6 -6 3 7 2 16 -1 19 -3 4 -6 -2 -5 -13z"/>
<path d="M6963 6315 c0 -8 4 -12 9 -9 5 3 6 10 3 15 -9 13 -12 11 -12 -6z"/>
<path d="M3192 5980 c0 -14 2 -19 5 -12 2 6 2 18 0 25 -3 6 -5 1 -5 -13z"/>
<path d="M7042 5930 c0 -14 2 -19 5 -12 2 6 2 18 0 25 -3 6 -5 1 -5 -13z"/>
<path d="M7047 5848 c-3 -12 -2 -39 2 -58 l8 -35 4 48 c5 53 -5 83 -14 45z"/>
<path d="M3650 4660 c0 -11 4 -20 9 -20 5 0 7 9 4 20 -3 11 -7 20 -9 20 -2 0
-4 -9 -4 -20z"/>
</g>
</svg>
